<svg width="137" height="124" viewBox="0 0 137 124" fill="none" xmlns="http://www.w3.org/2000/svg">
<rect width="137" height="124" rx="14" fill="#2A8C53"/>
<path d="M38.1096 72.4193C39.198 72.8706 40.2404 73.4544 41.4168 73.5928C41.6275 73.6176 41.8081 73.8062 42.0036 73.8062C42.1694 73.8062 42.6036 73.8847 42.7504 73.9662C43.1056 74.1636 43.7256 74.1263 44.1373 74.1263C44.5477 74.1263 45.1046 74.1586 45.4709 73.9959C45.8936 73.808 46.5301 73.5372 46.9645 73.4861C47.3936 73.4357 48.0058 73.13 48.4047 72.9527C48.7541 72.7974 49.3166 72.3126 49.685 72.3126C50.0757 72.3126 50.6756 71.8303 51.0185 71.6488C51.4274 71.4323 51.6229 70.993 52.032 70.7657C52.6837 70.4036 53.633 69.5329 54.0294 68.8987C54.5078 68.1332 55.5153 67.758 56.0802 67.0317C56.4805 66.517 57.0534 65.2713 57.8464 65.2713" stroke="#48BB78" stroke-width="2" stroke-linecap="round"/>
<path d="M57.5263 65.2713C58.0715 64.4618 58.7276 63.8518 59.5059 63.268C59.8184 63.0337 60.1206 62.6882 60.4542 62.4975C60.9026 62.2413 61.3286 61.6541 61.7108 61.3003C62.7672 60.3221 63.9252 59.5126 64.941 58.4968C65.4992 57.9385 66.2548 57.6047 66.8317 57.0803C67.1782 56.7652 67.7407 56.3288 68.1475 56.0964C68.6324 55.8192 69.1552 55.4874 69.6055 55.1599C69.7702 55.0401 70.173 55.0157 70.3819 54.9228C70.6102 54.8214 70.746 54.6075 70.9687 54.4961" stroke="#48BB78" stroke-width="2" stroke-linecap="round"/>
<path d="M70.1152 54.9228C71.202 54.4722 72.4864 54.0892 73.2091 53.0855C73.4858 52.7012 74.0218 52.3678 74.4064 52.1016C74.8532 51.7922 75.2922 51.3682 75.7696 51.1296C76.2081 50.9103 76.7115 50.4859 77.1031 50.1812C77.3777 49.9677 77.6928 49.853 77.9566 49.6478C78.4405 49.2714 79.3421 48.6065 79.9303 48.8417" stroke="#48BB78" stroke-width="2" stroke-linecap="round"/>
<path d="M78.8635 49.0551C79.2156 48.8404 79.5859 48.6527 79.877 48.3617C80.0295 48.2092 80.3533 48.1796 80.4638 48.0416C80.6499 47.809 81.0889 48.6385 81.258 48.7351C81.5497 48.9018 81.8873 49.1799 82.2181 49.2744C82.4642 49.3447 82.7502 49.8387 82.9709 50.0153C83.2113 50.2076 83.5404 50.5559 83.7473 50.7858C83.9602 51.0223 84.3256 51.4358 84.4941 51.7223C84.8601 52.3444 85.0512 53.2576 85.0512 53.9627" stroke="#48BB78" stroke-width="2" stroke-linecap="round"/>
<path d="M84.838 53.7493C85.7317 53.728 86.3962 53.2255 87.2325 53.0025C87.6806 52.883 88.134 52.8264 88.566 52.6824C89.1154 52.4993 89.6641 52.3483 90.1722 52.066C90.5939 51.8318 91.0255 51.5761 91.4762 51.4259C92.554 51.0666 93.6055 50.8437 94.659 50.3828C95.7061 49.9246 96.5141 49.1896 97.3735 48.4624C98.1862 47.7748 99.1988 47.4273 100.118 46.8147C101.165 46.1168 102.137 45.3029 103.188 44.6277C104.249 43.9453 105.396 43.3951 106.495 42.7844C106.947 42.5336 107.328 42.2389 107.775 41.9901C108.195 41.7572 108.354 41.1376 108.736 40.947" stroke="#48BB78" stroke-width="2" stroke-linecap="round"/>
<path d="M108.309 41.2671C109.264 41.2226 110 40.5161 110.822 40.0935C111.39 39.8013 111.918 39.4731 112.416 39.0859C113.129 38.5313 113.897 38.026 114.55 37.373C115.528 36.3953 114.627 34.2718 114.497 33.1589C114.428 32.5762 113.521 32.1001 113.216 31.7187C112.904 31.3285 112.217 30.8764 111.675 31.0312C111.531 31.0724 111.529 31.2386 111.349 31.2386C111.171 31.2386 110.994 31.2386 110.816 31.2386C110.5 31.2386 109.981 31.1596 109.719 31.369C109.331 31.6794 108.817 31.8959 108.421 32.2521C108.092 32.5487 107.629 32.7204 107.218 32.8626C106.128 33.24 105.147 33.5734 104.255 34.3384C103.577 34.9196 102.797 35.347 102.121 35.9268C101.371 36.5696 100.319 36.8955 99.5842 37.5568C99.3393 37.7772 98.9849 38.0936 98.6537 38.1672C98.3513 38.2344 97.9393 38.2686 97.6402 38.4103C96.6277 38.8898 95.9584 39.5516 95.0323 40.1409C94.1727 40.688 92.9028 40.2127 92.1459 41.0537C91.8201 41.4157 91.2237 41.514 90.8656 41.8005C90.4943 42.0976 89.9851 42.1327 89.6387 42.4406C89.1699 42.8573 88.5825 43.2354 88.0385 43.5075" stroke="#48BB78" stroke-width="2" stroke-linecap="round"/>
<path d="M78.4367 49.1618C80.1239 47.8837 81.8174 46.7976 83.611 45.8012C85.8586 44.5525 88.1154 43.3903 90.4922 42.3339" stroke="#48BB78" stroke-width="2" stroke-linecap="round"/>
<path d="M51.0186 86.6085C51.0186 85.6962 51.3386 84.8296 51.3386 83.9413C51.3386 83.6046 51.4194 82.8421 51.2082 82.5781C50.5524 81.7584 51.8528 79.6583 52.3047 78.9804C52.6311 78.4908 53.1025 78.0875 53.4131 77.5995C53.7049 77.1408 53.9019 76.5772 54.2784 76.2007C54.7763 75.7028 55.2707 75.2084 55.772 74.7071C56.311 74.1681 56.7124 73.0481 57.4197 72.846" stroke="#48BB78" stroke-width="2" stroke-linecap="round"/>
<path d="M55.4993 74.8731C56.584 73.7883 57.5816 72.5655 58.6406 71.5065C59.4216 70.7255 60.254 69.9822 61.1003 69.2661C62.0552 68.4581 62.7939 67.4179 63.8445 66.7175C64.7855 66.0901 65.7868 65.5305 66.7013 64.8446" stroke="#48BB78" stroke-width="2" stroke-linecap="round"/>
<path d="M66.488 65.1647C68.0549 63.8536 69.4849 62.3811 70.9154 60.9506C72.0749 59.7911 73.7861 59.4413 75.0821 58.4909C76.1766 57.6883 77.4796 56.969 78.7331 56.4401C79.7327 56.0184 80.737 55.6581 81.5544 54.8991C82.4076 54.1069 83.4166 53.6391 84.4823 53.1921C85.2668 52.8632 86.3197 52.3624 87.185 52.3624" stroke="#48BB78" stroke-width="2" stroke-linecap="round"/>
<path d="M50.9118 86.8218C50.3833 86.4215 49.25 85.9851 49.0922 85.2749C48.9438 84.6071 48.0586 84.102 47.5453 83.7754C46.793 83.2967 46.1023 82.7117 45.4708 82.0803C44.8642 81.4736 44.1627 81.1056 43.5505 80.5274C43.0587 80.0629 42.4233 79.6192 42.0094 79.0871C41.6792 78.6625 41.2922 78.2692 40.907 77.884C40.6691 77.646 40.139 77.1411 40.0298 76.8408C39.8907 76.4581 39.3726 76.1461 39.0934 75.8569C38.7324 75.483 38.4625 75.1299 38.0561 74.8138C37.8293 74.6373 37.7386 74.3992 37.4694 74.2566C37.2793 74.156 36.8588 73.8164 36.7226 73.6462C36.3476 73.1775 35.8565 72.4293 35.3357 72.1229C35.1381 72.0067 34.8068 71.5945 34.6955 71.3998C34.4695 71.0043 34.0574 70.8684 33.8184 70.4989C33.6828 70.2895 33.3785 70.1421 33.2019 69.9655C32.9266 69.6901 32.6878 69.3447 32.4018 69.0587C31.9776 68.6345 31.4486 68.3606 31.0682 67.8851C30.7421 67.4775 30.2078 66.9293 29.7406 66.682C29.1752 66.3826 28.7852 65.8071 28.1877 65.5084C27.8677 65.3484 25.9687 63.3082 25.7339 63.7777" stroke="#48BB78" stroke-width="2" stroke-linecap="round"/>
<path d="M51.5519 86.2884C50.7285 88.2743 48.5009 89.7141 46.6977 90.7159C45.7599 91.2369 44.8181 91.6877 43.8232 92.0495C42.9425 92.3697 41.7777 92.6896 40.83 92.6896C39.8896 92.6896 38.9447 92.6896 38.0029 92.6896C37.5462 92.6896 37.0133 92.4907 36.5685 92.3636C36.2478 92.272 35.5707 92.1734 35.312 91.9665C35.2167 91.8903 34.7779 91.8603 34.6423 91.8302C34.3818 91.7723 34.1404 91.6249 33.8955 91.516C33.341 91.2696 32.7882 91.0661 32.2418 90.7929C31.8588 90.6015 31.5076 90.1403 31.1157 90.0284C30.6753 89.9025 30.2268 89.5839 29.871 89.2993C29.1335 88.7094 28.3472 88.1307 27.5951 87.5153C26.7089 86.7903 25.7922 86.1371 25.2539 85.1682C25.0652 84.8286 24.9638 84.2262 24.7501 83.9651C24.2918 83.4048 24.006 82.7478 23.6477 82.1336C23.0713 81.1455 22.4267 80.0854 22.4267 78.8738C22.4267 77.6306 22 76.4374 22 75.1694C22 73.8438 22.0978 72.3707 22.6164 71.1391C22.8203 70.6548 23.0646 70.0024 23.1795 69.4854C23.2449 69.1908 23.5706 68.8591 23.6833 68.5549C23.8008 68.2375 23.8912 67.9449 24.0033 67.6421C24.3397 66.7338 24.8416 66.0301 25.3547 65.2239C25.5523 64.9133 25.7469 64.6416 25.9474 64.3349C26.0729 64.1428 26.1824 63.7669 26.3741 63.6711" stroke="#48BB78" stroke-width="2" stroke-linecap="round"/>
</svg>
