<svg width="157" height="36" viewBox="0 0 157 36" fill="none" xmlns="http://www.w3.org/2000/svg">
<path d="M60.367 27.19C59.3917 27.19 58.562 26.981 57.878 26.563C57.194 26.145 56.6747 25.5877 56.32 24.891C55.978 24.1817 55.807 23.3963 55.807 22.535C55.807 21.6737 55.978 20.8947 56.32 20.198C56.6747 19.4887 57.194 18.925 57.878 18.507C58.562 18.089 59.3917 17.88 60.367 17.88C61.887 17.88 62.8687 18.1017 63.312 18.545C63.5274 18.7603 63.6604 19.0453 63.711 19.4C63.7617 19.7547 63.787 20.3563 63.787 21.205H63.217C63.1664 20.407 62.9194 19.799 62.476 19.381C62.0327 18.9503 61.4247 18.735 60.652 18.735C59.9554 18.735 59.398 19.058 58.98 19.704C58.5747 20.3373 58.372 21.281 58.372 22.535C58.372 25.0683 59.1637 26.335 60.747 26.335C61.355 26.335 61.8617 26.202 62.267 25.936C62.685 25.6573 63.084 25.2647 63.464 24.758L64.053 25.195C63.6857 25.765 63.2234 26.24 62.666 26.62C62.1087 27 61.3424 27.19 60.367 27.19ZM68.3298 27.19C67.3038 27.19 66.5058 26.962 65.9358 26.506C65.3785 26.0373 65.0998 25.4103 65.0998 24.625C65.0998 23.9917 65.2455 23.466 65.5368 23.048C65.8408 22.63 66.3665 22.3133 67.1138 22.098C67.8612 21.8827 68.8998 21.775 70.2298 21.775H70.5148C70.5148 20.673 70.3628 19.894 70.0588 19.438C69.7548 18.9693 69.3052 18.735 68.7098 18.735C68.2158 18.735 67.8105 18.8553 67.4938 19.096C67.1772 19.3367 66.9492 19.7863 66.8098 20.445H65.7648C65.7648 20.0143 65.7902 19.647 65.8408 19.343C65.9042 19.039 66.0372 18.773 66.2398 18.545C66.6325 18.1017 67.5825 17.88 69.0898 17.88C70.3565 17.88 71.3192 18.2157 71.9778 18.887C72.6492 19.5457 72.9848 20.54 72.9848 21.87V27H71.3698L70.7048 26.145H70.6098C70.4958 26.3223 70.3185 26.4997 70.0778 26.677C69.6472 27.019 69.0645 27.19 68.3298 27.19ZM68.8998 26.24C69.1658 26.24 69.3938 26.1893 69.5838 26.088C69.7738 25.974 69.9575 25.822 70.1348 25.632C70.2995 25.4547 70.4262 25.2457 70.5148 25.005V22.63H70.2298C69.3305 22.63 68.6782 22.7947 68.2728 23.124C67.8675 23.4407 67.6648 23.941 67.6648 24.625C67.6648 25.1443 67.7725 25.5433 67.9878 25.822C68.2032 26.1007 68.5072 26.24 68.8998 26.24ZM75.4946 20.54C75.4946 19.894 75.4059 19.419 75.2286 19.115C75.0639 18.7983 74.7156 18.64 74.1836 18.64H73.9936V18.07H75.8746C76.3179 18.07 76.6599 18.1333 76.9006 18.26C77.1413 18.374 77.3313 18.5767 77.4706 18.868C78.2179 18.2093 79.0793 17.88 80.0546 17.88C81.3339 17.88 82.3156 18.317 82.9996 19.191C83.6963 20.0523 84.0446 21.167 84.0446 22.535C84.0446 23.903 83.6899 25.024 82.9806 25.898C82.2839 26.7593 81.2769 27.19 79.9596 27.19C79.4403 27.19 78.9526 27.095 78.4966 26.905C78.2939 26.829 78.1166 26.734 77.9646 26.62V30.61H75.4946V20.54ZM79.5796 26.335C80.8463 26.335 81.4796 25.0683 81.4796 22.535C81.4796 21.3697 81.3339 20.445 81.0426 19.761C80.7513 19.077 80.2953 18.735 79.6746 18.735C78.9653 18.735 78.3509 18.9947 77.8316 19.514L77.8886 19.78C77.9393 19.932 77.9646 20.1473 77.9646 20.426V25.765C78.1039 25.879 78.2559 25.974 78.4206 26.05C78.7753 26.24 79.1616 26.335 79.5796 26.335ZM89.0489 27.19C88.1749 27.19 87.4972 26.9557 87.0159 26.487C86.5345 26.0057 86.2939 25.3153 86.2939 24.416V18.925H85.1539V18.07H86.2939V16.36L87.2439 15.22H88.7639V18.07H90.8539V18.925H88.7639V24.53C88.7639 25.214 88.8462 25.689 89.0109 25.955C89.1755 26.2083 89.4225 26.335 89.7519 26.335C90.1065 26.335 90.4612 26.2527 90.8159 26.088C90.9552 26.012 91.1009 25.9233 91.2529 25.822L91.5189 26.354C91.3542 26.4933 91.1579 26.6327 90.9299 26.772C90.3979 27.0507 89.7709 27.19 89.0489 27.19ZM95.2527 27.19C94.2267 27.19 93.4287 26.962 92.8587 26.506C92.3013 26.0373 92.0227 25.4103 92.0227 24.625C92.0227 23.9917 92.1683 23.466 92.4597 23.048C92.7637 22.63 93.2893 22.3133 94.0367 22.098C94.784 21.8827 95.8227 21.775 97.1527 21.775H97.4377C97.4377 20.673 97.2857 19.894 96.9817 19.438C96.6777 18.9693 96.228 18.735 95.6327 18.735C95.1387 18.735 94.7333 18.8553 94.4167 19.096C94.1 19.3367 93.872 19.7863 93.7327 20.445H92.6877C92.6877 20.0143 92.713 19.647 92.7637 19.343C92.827 19.039 92.96 18.773 93.1627 18.545C93.5553 18.1017 94.5053 17.88 96.0127 17.88C97.2793 17.88 98.242 18.2157 98.9007 18.887C99.572 19.5457 99.9077 20.54 99.9077 21.87V27H98.2927L97.6277 26.145H97.5327C97.4187 26.3223 97.2413 26.4997 97.0007 26.677C96.57 27.019 95.9873 27.19 95.2527 27.19ZM95.8227 26.24C96.0887 26.24 96.3167 26.1893 96.5067 26.088C96.6967 25.974 96.8803 25.822 97.0577 25.632C97.2223 25.4547 97.349 25.2457 97.4377 25.005V22.63H97.1527C96.2533 22.63 95.601 22.7947 95.1957 23.124C94.7903 23.4407 94.5877 23.941 94.5877 24.625C94.5877 25.1443 94.6953 25.5433 94.9107 25.822C95.126 26.1007 95.43 26.24 95.8227 26.24ZM103.633 17.044C103.177 17.044 102.823 16.9047 102.569 16.626C102.329 16.3473 102.208 16.0053 102.208 15.6C102.208 15.2707 102.303 15.011 102.493 14.821C102.696 14.631 102.949 14.536 103.253 14.536C103.709 14.536 104.058 14.6753 104.298 14.954C104.552 15.2327 104.678 15.5747 104.678 15.98C104.678 16.3093 104.577 16.569 104.374 16.759C104.184 16.949 103.937 17.044 103.633 17.044ZM102.398 20.54C102.398 19.894 102.31 19.419 102.132 19.115C101.955 18.7983 101.6 18.64 101.068 18.64H100.878V18.07H103.158C103.614 18.07 103.963 18.146 104.203 18.298C104.444 18.45 104.615 18.7033 104.716 19.058C104.818 19.4 104.868 19.894 104.868 20.54V27H102.398V20.54ZM107.483 20.54C107.483 19.894 107.394 19.419 107.217 19.115C107.052 18.7983 106.704 18.64 106.172 18.64H105.982V18.07H107.863C108.294 18.07 108.629 18.127 108.87 18.241C109.123 18.3423 109.32 18.5197 109.459 18.773C110.105 18.1777 111.03 17.88 112.233 17.88C113.436 17.88 114.336 18.165 114.931 18.735C115.539 19.2923 115.843 20.1727 115.843 21.376V27H113.373V21.357C113.373 20.483 113.208 19.8433 112.879 19.438C112.562 19.0327 112.125 18.83 111.568 18.83C111.175 18.83 110.827 18.887 110.523 19.001C110.232 19.1023 109.997 19.2417 109.82 19.419L109.877 19.685C109.928 19.837 109.953 20.084 109.953 20.426V27H107.483V20.54ZM122.136 27.19C121.16 27.19 120.331 26.981 119.647 26.563C118.963 26.145 118.443 25.5877 118.089 24.891C117.747 24.1817 117.576 23.3963 117.576 22.535C117.576 21.6737 117.747 20.8947 118.089 20.198C118.443 19.4887 118.963 18.925 119.647 18.507C120.331 18.089 121.16 17.88 122.136 17.88C123.656 17.88 124.637 18.1017 125.081 18.545C125.296 18.7603 125.429 19.0453 125.48 19.4C125.53 19.7547 125.556 20.3563 125.556 21.205H124.986C124.935 20.407 124.688 19.799 124.245 19.381C123.801 18.9503 123.193 18.735 122.421 18.735C121.724 18.735 121.167 19.058 120.749 19.704C120.343 20.3373 120.141 21.281 120.141 22.535C120.141 25.0683 120.932 26.335 122.516 26.335C123.124 26.335 123.63 26.202 124.036 25.936C124.454 25.6573 124.853 25.2647 125.233 24.758L125.822 25.195C125.454 25.765 124.992 26.24 124.435 26.62C123.877 27 123.111 27.19 122.136 27.19ZM131.561 27.19C130.637 27.19 129.826 26.9873 129.129 26.582C128.445 26.164 127.92 25.6067 127.552 24.91C127.185 24.2007 127.001 23.409 127.001 22.535C127.001 21.661 127.185 20.8757 127.552 20.179C127.92 19.4697 128.445 18.9123 129.129 18.507C129.826 18.089 130.637 17.88 131.561 17.88C132.486 17.88 133.29 18.089 133.974 18.507C134.671 18.9123 135.203 19.4697 135.57 20.179C135.938 20.8757 136.121 21.661 136.121 22.535C136.121 23.409 135.938 24.2007 135.57 24.91C135.203 25.6067 134.671 26.164 133.974 26.582C133.29 26.9873 132.486 27.19 131.561 27.19ZM131.561 26.335C132.207 26.335 132.701 25.9867 133.043 25.29C133.385 24.5933 133.556 23.675 133.556 22.535C133.556 21.395 133.385 20.4767 133.043 19.78C132.701 19.0833 132.207 18.735 131.561 18.735C130.915 18.735 130.421 19.0833 130.079 19.78C129.737 20.4767 129.566 21.395 129.566 22.535C129.566 23.675 129.737 24.5933 130.079 25.29C130.421 25.9867 130.915 26.335 131.561 26.335ZM142.045 27.19C141.12 27.19 140.309 26.9873 139.613 26.582C138.929 26.164 138.403 25.6067 138.036 24.91C137.668 24.2007 137.485 23.409 137.485 22.535C137.485 21.661 137.668 20.8757 138.036 20.179C138.403 19.4697 138.929 18.9123 139.613 18.507C140.309 18.089 141.12 17.88 142.045 17.88C142.969 17.88 143.774 18.089 144.458 18.507C145.154 18.9123 145.686 19.4697 146.054 20.179C146.421 20.8757 146.605 21.661 146.605 22.535C146.605 23.409 146.421 24.2007 146.054 24.91C145.686 25.6067 145.154 26.164 144.458 26.582C143.774 26.9873 142.969 27.19 142.045 27.19ZM142.045 26.335C142.691 26.335 143.185 25.9867 143.527 25.29C143.869 24.5933 144.04 23.675 144.04 22.535C144.04 21.395 143.869 20.4767 143.527 19.78C143.185 19.0833 142.691 18.735 142.045 18.735C141.399 18.735 140.905 19.0833 140.563 19.78C140.221 20.4767 140.05 21.395 140.05 22.535C140.05 23.675 140.221 24.5933 140.563 25.29C140.905 25.9867 141.399 26.335 142.045 26.335ZM155.549 27.19C154.992 27.19 154.479 27.076 154.01 26.848C153.554 26.6073 153.124 26.2147 152.718 25.67L150.894 23.276V27H148.424V16.93C148.424 16.284 148.336 15.809 148.158 15.505C147.981 15.1883 147.626 15.03 147.094 15.03H146.904V14.46H149.184C149.64 14.46 149.989 14.536 150.229 14.688C150.47 14.84 150.641 15.0933 150.742 15.448C150.844 15.79 150.894 16.284 150.894 16.93V22.345L153.193 19.533C153.624 19.0137 154.029 18.64 154.409 18.412C154.789 18.184 155.296 18.07 155.929 18.07H156.309V18.564C155.929 18.564 155.587 18.64 155.283 18.792C154.979 18.944 154.688 19.1847 154.409 19.514L152.566 21.756L155.093 25.1C155.701 25.9233 156.29 26.4047 156.86 26.544V27C156.759 27.0507 156.569 27.095 156.29 27.133C156.024 27.171 155.777 27.19 155.549 27.19Z" fill="black"/>
<path d="M1 17.8578C2.71164 17.8578 4.25813 17.5658 5.94213 17.5658C7.07672 17.5658 8.18663 17.5111 9.20214 17.8496C10.0473 18.1314 10.7738 19.4869 11.0024 20.4209C11.2962 21.6206 11.2884 22.6488 10.3212 23.5517C10.1212 23.7385 9.61389 24.6324 9.28555 24.2493C9.22497 24.1786 9.13867 23.5255 9.13263 23.4057C9.12603 23.2748 8.85804 22.8839 8.78508 22.7893C8.4525 22.3581 8.22494 21.8297 7.75634 21.5402C7.4086 21.3254 7.10439 20.3637 6.7554 20.3397C5.71088 20.2681 4.75933 19.4638 3.62746 19.4638C2.98594 19.4638 2.21652 19.665 1.7229 19.2042C1.42805 18.9289 1.25023 19.38 1.25023 18.7338C1.25023 18.4577 1.3395 17.9828 1.12512 17.8578" stroke="#043478" stroke-width="2" stroke-linecap="round"/>
<path d="M9.23438 23.8594C9.23438 25.319 9.36131 26.844 9.36131 28.2253C9.36131 29.0879 9.85057 30.6767 10.4403 31.2363C11.087 31.8499 11.4989 33.0028 12.2245 33.4945C13.1587 34.1276 13.9748 34.6989 15.0736 34.6989C16.057 34.6989 16.9575 35 17.8663 35C18.9453 35 20.0242 35 21.1032 35C23.2824 35 25.4615 35 27.6406 35" stroke="#043478" stroke-width="2" stroke-linecap="round"/>
<path d="M27.6083 35C29.3387 35 31.0692 35 32.7996 35C34.2887 35 35.0742 34.5474 36.155 33.5727C37.1018 32.7189 37.6105 30.7569 37.8573 29.5049C38.1542 27.9986 37.991 26.2871 37.991 24.7234C37.991 23.9795 37.9016 23.3887 38.3427 22.8362C38.7609 22.3125 39.2939 22.2262 39.7636 21.7261C40.0281 21.4445 40.1945 21.0407 40.5515 20.9015C40.9252 20.7556 41.3117 20.6078 41.6629 20.4098C42.357 20.0186 43.4835 19.8706 44.2585 19.8706C44.8667 19.8706 45.5733 19.5852 46.1578 19.5852C46.9405 19.5852 46.2552 18.6682 46.2211 18.0151C46.2106 17.8132 41.994 18.0151 41.5855 18.0151C40.7509 18.0151 39.8627 18.1579 39.0672 18.1579C38.9192 18.1579 38.1685 18.2516 38.1246 18.0786C38.0126 17.6368 38.3708 17.3507 38.3708 16.9447C38.3708 16.5688 38.1835 15.0085 37.794 14.883C37.5905 14.8175 37.0522 15.0178 36.7881 15.0178C36.3975 15.0178 36.0035 15.0347 35.6134 15.0178C33.9701 14.9466 32.31 14.4783 30.6471 14.9068C28.9876 15.3344 26.9829 15.0178 25.2659 15.0178C22.1538 15.0178 19.1866 14.7323 16.0861 14.7323C15.2326 14.7323 14.3791 14.7323 13.5256 14.7323C12.7766 14.7323 11.8205 14.556 11.0847 14.7403C10.489 14.8895 9.94368 14.9734 9.43161 15.3033C8.97615 15.5966 9.40543 17.3898 9.75518 17.5869" stroke="#043478" stroke-width="2" stroke-linecap="round"/>
<path d="M37.5208 18.0469C37.343 18.7814 36.5811 20.8547 36.9375 21.5728C37.0744 21.8487 37.2234 22.1488 37.348 22.3999C37.507 22.7203 37.5931 23.1982 37.8125 23.375" stroke="#043478" stroke-width="2" stroke-linecap="round"/>
<path d="M16.7505 11.2031C16.1885 9.9213 15.8884 9.60614 16.0384 8.44219C16.1403 7.65208 17.1029 7.54395 17.4625 6.9339C17.9673 6.07743 17.9372 5.37882 17.9372 4.41582C17.9372 3.52514 17.4625 2.86733 17.4625 2" stroke="#515151" stroke-width="3" stroke-linecap="round"/>
<path d="M22.4823 2C22.4823 2.46273 22.3367 3.58435 22.5963 3.96113C22.7163 4.13523 22.9123 4.52687 22.922 4.76448C22.946 5.35679 23.0811 6.66378 22.7428 7.0564C22.4163 7.43547 22.0427 7.85955 22.0427 8.59223C22.0427 9.17448 21.835 10.7187 22.3358 10.7187" stroke="#515151" stroke-width="3" stroke-linecap="round"/>
<path d="M28.0541 11.7187C27.6318 11.4011 26.4693 9.79227 27.2811 9.16692C27.7351 8.8172 28.4175 8.53209 28.4958 7.89101C28.5716 7.27034 28.9375 6.56175 28.9375 5.87081C28.9375 4.89032 28.7166 3.96652 28.7166 3" stroke="#515151" stroke-width="3" stroke-linecap="round"/>
</svg>
