<svg width="137" height="124" viewBox="0 0 137 124" fill="none" xmlns="http://www.w3.org/2000/svg">
<rect width="137" height="124" rx="14" fill="#48BB78"/>
<path d="M24.9879 25.9612C24.3919 26.5758 24.0906 27.156 24.6504 27.8758C24.9161 28.2173 25.4 28.4724 25.5821 28.8001C25.8505 29.2832 26.2077 29.729 26.4403 30.2525C26.6706 30.7707 27.3095 31.0704 27.6874 31.4482C28.028 31.7888 28.3323 32.3966 28.751 32.6292C29.2355 32.8984 29.4851 33.4878 29.9467 33.7516C30.5288 34.0842 30.9504 34.7485 31.5165 35.072C31.6415 35.1434 31.9082 35.5385 31.9933 35.6662C32.2498 36.0509 32.6969 36.2766 32.9763 36.6491C33.6925 37.6041 34.708 38.3344 35.3163 39.4293C35.594 39.929 36.1875 40.1524 36.446 40.6177C36.7674 41.1962 37.3199 41.5209 37.7664 41.9674C38.7412 42.9422 39.6234 44.0803 40.4366 45.2097C40.9969 45.9879 42.7982 46.6915 43.7376 46.6915" stroke="#2A8C53" stroke-width="2" stroke-linecap="round"/>
<path d="M24.8558 25.5651C24.5434 25.1652 24.1191 24.5763 23.7408 24.252C23.5588 24.096 23.1547 23.8455 23.1393 23.5845C23.1081 23.0546 22.7164 22 23.4034 22C24.0069 22 24.4463 22.6828 24.9879 22.9536C25.2522 23.0858 25.6284 23.2244 25.8461 23.3938C26.0529 23.5546 26.5328 23.9033 26.7777 23.9733C27.4984 24.1792 27.9436 23.7309 28.6116 24.1126C29.1938 24.4453 29.6284 25.2323 30.2108 25.5651C30.7863 25.894 31.178 26.6057 31.6559 27.0835C32.3542 27.7819 33.1724 28.3704 33.8345 29.0715C34.4284 29.7002 34.7501 30.625 35.1843 31.3748C35.4937 31.9093 36.2172 32.8677 36.7394 33.1941C37.2723 33.5271 37.603 34.1124 38.0598 34.5438C38.6289 35.0812 39.2597 35.665 39.9084 36.1283C40.3539 36.4465 40.6042 36.9161 40.9647 37.3167C41.3693 37.7662 41.8932 38.2621 42.2191 38.7691C42.8803 39.7976 43.9551 40.5751 44.5225 41.6153C45.1771 42.8156 46.6428 43.2147 47.6988 43.9187" stroke="#2A8C53" stroke-width="2" stroke-linecap="round"/>
<path d="M43.3414 48.5401C44.2044 47.401 44.8352 46.5095 46.1143 45.8699C46.7821 45.536 47.7546 45.1274 48.0949 44.4468" stroke="#2A8C53" stroke-width="2" stroke-linecap="round"/>
<path d="M45.19 48.1439C45.5655 49.0496 46.195 49.7101 46.6718 50.5207C47.0566 51.1748 47.5928 52.0684 48.0949 52.6333C48.5954 53.1964 48.7398 54.2387 49.1512 54.9073C49.6522 55.7214 49.9262 56.7031 50.5743 57.4161C51.1583 58.0584 51.4783 58.9916 51.8214 59.7635C52.1312 60.4606 52.6294 60.9688 52.951 61.612C53.3093 62.3286 53.7232 62.9565 54.0074 63.6953C54.2733 64.3868 54.4123 64.9483 54.8289 65.5732" stroke="#2A8C53" stroke-linecap="round"/>
<path d="M45.8502 47.0876C46.8735 48.1109 47.6488 49.3015 48.623 50.3299C49.2509 50.9927 49.4513 51.9724 50.0755 52.6333C50.3843 52.9603 50.509 53.6923 50.8677 53.9244C51.2223 54.1538 51.6223 54.7661 51.8214 55.1421C52.2053 55.8674 52.8208 56.5098 53.2151 57.2547C53.5731 57.9309 54.244 58.4417 54.5942 59.1033C55.0193 59.9063 55.5937 60.7565 56.0466 61.612C56.4624 62.3973 57.1045 62.9356 57.4991 63.7247C57.9022 64.5309 58.1616 65.3567 58.6581 66.1014" stroke="#2A8C53" stroke-linecap="round"/>
<path d="M46.5104 46.6915C47.3788 47.5599 48.3187 48.2563 48.9165 49.3323C49.2727 49.9736 50.012 50.7403 50.501 51.2836C51.0898 51.9379 51.7295 52.7849 52.1588 53.5576C52.6924 54.518 53.7233 55.3569 54.4988 56.1324C55.0438 56.6773 55.5272 57.2928 56.0833 57.8489C56.6327 58.3983 57.0276 59.1712 57.6605 59.6314C58.6405 60.3442 59.6879 61.3799 60.4333 62.3383C61.0709 63.1581 61.7814 63.9962 62.6927 64.5169C62.9689 64.6748 63.3951 65.2547 63.5436 65.5146C63.7536 65.8822 64.1581 66.1421 64.3358 66.4975" stroke="#2A8C53" stroke-linecap="round"/>
<path d="M47.1706 46.5595C49.3344 46.9569 50.4643 48.4741 51.9241 49.9338C52.844 50.8538 53.9021 51.6025 54.895 52.4426C55.9043 53.2966 57.1564 53.9044 58.0713 54.8193C58.919 55.667 59.8446 56.8282 60.9028 57.4161C61.8016 57.9155 62.4727 58.6529 63.1475 59.3674C64.0723 60.3466 65.0905 61.018 66.1184 61.8174C67.2269 62.6796 68.1871 63.7199 69.2873 64.5756C69.7377 64.9259 70.296 65.1271 70.7764 65.4412C71.2251 65.7345 71.9092 66.2051 72.3903 66.3655" stroke="#2A8C53" stroke-linecap="round"/>
<path d="M47.6988 46.2954C48.5523 46.7895 49.3677 47.3595 50.2002 47.8799C50.5282 48.0848 51.0159 48.2962 51.2639 48.6061C51.7157 49.1709 52.4037 49.3572 52.8777 49.8311C53.3482 50.3016 54.1498 50.6443 54.7629 50.9168C55.7448 51.3532 56.5092 52.0157 57.367 52.6333C58.1878 53.2243 58.9768 53.7649 59.8538 54.2765C60.7195 54.7814 61.549 55.5212 62.4579 55.9343C63.5687 56.4392 64.7819 57.5834 65.6489 58.4504C66.0219 58.8234 66.4573 59.1325 66.8446 59.4994C67.0939 59.7356 67.647 60.383 67.7689 59.8955" stroke="#2A8C53" stroke-linecap="round"/>
<path d="M64.3358 57.5188C65.4701 58.4318 66.571 59.4735 67.8422 60.1669C68.924 60.757 69.8756 61.5794 70.9378 62.1695C72.6665 63.1299 74.4377 64.3196 75.8233 65.7053" stroke="#2A8C53" stroke-linecap="round"/>
<path d="M25.516 46.0313C25.516 44.8712 25.7214 44.045 26.6384 43.3318C27.4605 42.6924 28.2713 42.0877 29.0224 41.3365C29.7888 40.5702 30.5664 39.7318 31.4872 39.1652C31.9642 38.8716 32.7468 38.2409 33.3064 38.2409" stroke="#2A8C53" stroke-linecap="round"/>
<path d="M25.6481 45.107C25.6266 46.0101 25.516 46.9005 25.516 47.8138C25.516 48.3091 25.3409 49.2284 25.582 49.6624C25.9771 50.3736 26.0146 51.3122 26.2789 52.0758C26.5254 52.7879 27.0104 53.208 27.3352 53.8217C28.463 55.9518 30.8729 57.2275 32.4848 59.0006C33.4768 60.0917 35.0257 60.8818 36.4093 61.414C38.2552 62.1239 40.0582 62.8133 41.8303 63.7247C43.9488 64.8142 46.3145 64.6639 48.623 64.9204C50.8356 65.1662 52.9696 65.3092 55.2251 65.3092" stroke="#2A8C53" stroke-linecap="round"/>
<path d="M31.3258 57.1227C30.4187 55.8754 29.9243 54.6572 29.2425 53.2935C28.5646 51.9377 27.8332 50.5203 28.0321 48.9289C28.1438 48.0353 28.9913 47.314 29.5359 46.6915C29.744 46.4537 29.5521 45.9262 29.6826 45.6279C29.9008 45.1292 30.0347 44.7972 30.4602 44.4468C30.9564 44.0382 31.2051 43.3157 31.7806 43.0017C32.1352 42.8083 32.6898 42.4226 32.9763 42.1361C33.4379 41.6745 34.7981 41.4689 35.419 41.2779" stroke="#2A8C53" stroke-linecap="round"/>
<path d="M41.3609 37.3166C43.4291 37.0264 45.4143 36.3396 47.464 35.9669C49.4112 35.6129 51.3832 35.5033 53.2445 34.7419C54.2253 34.3406 55.3318 34.1328 56.3474 33.8176C57.5137 33.4556 58.5502 33.0914 59.7951 33.0914C62.5006 33.0914 65.212 32.9593 67.9229 32.9593C69.121 32.9593 70.2923 32.6952 71.466 32.6952" stroke="#2A8C53" stroke-linecap="round"/>
<path d="M71.334 32.9593C72.5441 32.9593 73.705 33.0317 74.899 33.0914C75.1926 33.1061 75.3753 33.3555 75.6326 33.3555C76.3117 33.3555 76.9931 33.3381 77.6719 33.3555C79.058 33.391 80.4448 33.8453 81.8238 33.8836C82.7113 33.9083 83.7578 34.0521 84.6113 34.2797C86.4363 34.7664 88.3386 34.9974 90.0176 35.9302C90.4923 36.1939 91.0799 36.2837 91.6021 36.3997C92.3214 36.5595 92.8032 37.1825 93.4874 37.4194C94.4758 37.7615 95.3985 38.2578 96.4216 38.5344C97.0803 38.7124 97.8853 39.1032 98.3728 39.5907C98.6866 39.9044 99.3143 40.4068 99.7226 40.647C100.258 40.9619 100.595 41.7094 101.109 41.9381C102.465 42.5408 102.805 44.106 103.361 45.2978C104.046 46.7661 105.268 48.2985 105.268 49.9925" stroke="#2A8C53" stroke-linecap="round"/>
<path d="M53.1124 65.4412C55.1165 65.4412 57.1117 65.5732 59.1276 65.5732C59.9756 65.5732 60.7736 65.9379 61.5923 65.9694C62.7189 66.0127 63.8259 66.2334 64.952 66.2334C68.6543 66.2334 72.397 66.3774 76.0801 66.0941C77.7309 65.9671 79.3363 65.4983 80.9729 65.3165C82.0489 65.1969 83.1005 64.6399 84.2079 64.5096C85.6476 64.3402 87.1253 63.8607 88.5138 63.4606C89.999 63.0327 91.5809 62.5829 92.8858 61.7441C93.8651 61.1146 94.9781 60.5801 95.9008 59.8882C96.7379 59.2604 97.4586 58.328 98.4022 57.8562C99.0273 57.5437 99.862 56.9558 100.383 56.4625C100.978 55.8988 101.853 55.3072 102.261 54.6139C102.424 54.3362 102.835 53.9863 103.053 53.6896C103.417 53.1947 103.617 52.7246 103.875 52.1785C104.362 51.1464 104.459 49.7068 105.136 48.8042" stroke="#2A8C53" stroke-linecap="round"/>
<path d="M28.9491 57.1227C28.9491 58.5549 28.9156 59.6554 29.3745 60.9812C29.5418 61.4644 29.9378 62.3265 30.3282 62.661C30.7907 63.0575 30.7658 64.0697 30.9957 64.5756C31.6252 65.9605 31.4405 67.6236 31.986 69.0356C32.5454 70.4836 33.3321 72.5812 34.6928 73.4883C35.4699 74.0064 35.8797 75.1447 36.5414 75.8064C37.4562 76.7212 38.3733 77.5897 39.2482 78.5132C39.7482 79.0409 40.1199 79.649 40.6346 80.1637C41.1054 80.6344 41.5603 81.0894 42.0284 81.5574C42.5598 82.0888 43.3309 83.0633 44.0016 83.3987" stroke="#2A8C53" stroke-linecap="round"/>
<path d="M43.4735 83.7948C42.1603 85.108 40.8327 86.9347 40.8327 88.8417C40.8327 89.8077 41.2288 90.6466 41.2288 91.6145C41.2288 92.4299 42.2464 92.5118 42.2851 93.1696C42.3296 93.9255 42.5862 94.6227 42.916 95.2823C43.0667 95.5836 44.3171 96.5621 44.6619 96.6027C45.3216 96.6803 45.741 98.1032 46.3784 98.4219C47.1039 98.7846 47.9012 98.4982 48.6231 98.9794" stroke="#2A8C53" stroke-linecap="round"/>
<path d="M47.6988 98.9794C48.694 98.9997 49.7774 99.4551 50.6623 99.8743C51.5803 100.309 52.6819 100.095 53.5672 100.498C55.333 101.301 57.5028 101.191 59.3843 101.686C60.6059 102.008 62.217 102.016 63.4776 102.016C65.423 102.016 67.3735 102.119 69.3093 102.31C71.5471 102.531 73.9867 102.566 76.2121 102.288C77.4267 102.136 78.6004 101.652 79.7845 101.356" stroke="#2A8C53" stroke-linecap="round"/>
<path d="M79.1243 101.752C79.9239 101.561 80.5856 101.397 81.325 101.063C81.9779 100.768 82.5963 100.318 83.2836 100.109C83.8746 99.9292 84.5017 99.6722 85.0661 99.4049C86.6251 98.6664 88.3615 98.2519 89.8856 97.4536C91.0897 96.8229 92.6797 96.3833 93.6487 95.4143C94.7814 94.2816 95.9209 92.9654 96.627 91.5118C97.755 89.1895 97.6099 86.5882 97.6099 84.0442C97.6099 83.1947 97.4765 82.8083 97.1845 82.0489C96.974 81.5016 96.3858 81.4569 95.9594 81.22C95.215 80.8065 94.502 80.4464 93.7808 79.9656" stroke="#2A8C53" stroke-linecap="round"/>
<path d="M103.816 60.5557C103.816 61.771 103.938 62.8963 103.522 64.0181C103.213 64.8521 102.793 65.6388 102.429 66.4388C102.098 67.1677 101.976 67.9387 101.637 68.6835C101.378 69.2526 101.286 69.9013 100.977 70.4514C100.74 70.8723 100.445 71.2218 100.221 71.6471C99.9487 72.1652 99.4543 72.6393 99.0917 73.0995C98.7977 73.4726 98.5931 73.9459 98.2701 74.2879C97.5993 74.9981 97.2623 76.0538 96.6123 76.7967C96.0566 77.4318 95.5566 78.2067 95.0351 78.902C94.636 79.4341 93.8422 80.199 93.2526 80.4938" stroke="#2A8C53" stroke-linecap="round"/>
<path d="M43.2094 83.5307C44.1997 83.5307 45.19 83.5307 46.1803 83.5307C46.5123 83.5307 46.9147 83.4665 47.2366 83.538C47.5387 83.6052 47.7387 83.855 48.0289 83.9195C48.8312 84.0978 49.4037 84.8511 50.2735 84.8511C51.1512 84.8511 52.014 85.3793 52.9217 85.3793C54.048 85.3793 55.1968 85.7754 56.3474 85.7754C57.3899 85.7754 58.5345 86.0488 59.575 86.1788C60.7605 86.327 61.8651 86.5676 63.0888 86.5676C64.1426 86.5676 65.1965 86.5676 66.2504 86.5676C68.9407 86.5676 71.6209 86.4808 74.2682 86.0101C77.1076 85.5053 79.8381 84.6526 82.6601 84.0882C85.3411 83.552 88.0026 83.0007 90.5825 82.1076C91.2468 81.8777 92.197 81.2267 92.7244 80.7579C93.2969 80.249 94.4071 79.6977 95.1012 79.4375" stroke="#2A8C53" stroke-linecap="round"/>
<path d="M57.4697 66.7616C60.7817 66.7616 63.9864 66.2334 67.2994 66.2334C68.8202 66.2334 70.3437 66.4975 71.8915 66.4975C73.7858 66.4975 75.4528 66.1785 77.3051 65.808C81.6138 64.9463 86.1428 66.6312 90.4138 65.5072C91.8552 65.1279 93.1563 64.4305 94.4116 63.6513C95.6677 62.8717 97.3854 62.6062 98.7983 62.2429C100.584 61.7838 102.65 61.7213 104.014 60.3577C104.399 59.9721 105.066 59.733 105.532 59.4334C105.917 59.1858 106.179 58.901 106.523 58.6338C107.302 58.0278 108.091 57.2702 108.965 56.7559C109.806 56.2615 110.158 55.2386 110.946 54.7753C112.521 53.8486 112.852 51.7609 113.513 50.2493C113.656 49.9227 113.705 49.1245 113.719 48.7748C113.74 48.2316 113.963 47.7034 113.983 47.1903C114.021 46.1911 113.983 45.1828 113.983 44.1827" stroke="#2A8C53" stroke-linecap="round"/>
<path d="M113.587 45.2391C113.056 44.3897 112.324 43.0931 111.54 42.4662C110.769 41.8494 110.499 40.7908 109.692 40.1628C109.179 39.7641 108.826 39.4223 108.371 38.9672C108.095 38.6911 107.885 38.3538 107.579 38.1089C106.724 37.4249 105.872 36.7899 104.946 36.2603C104.507 36.0096 103.926 35.8033 103.552 35.4681C103.159 35.1166 102.189 34.5834 101.674 34.5438C101.09 34.4989 100.403 34.0842 99.8253 33.9129C99.0945 33.6964 98.1797 33.3772 97.4192 33.3554C96.4712 33.3284 95.7286 32.9343 94.8371 32.7246C94.0981 32.5507 93.3068 32.2912 92.6218 31.903C91.9585 31.5272 91.1395 31.7707 90.4798 31.4775C90.198 31.3523 89.3259 30.9097 89.1594 31.2428" stroke="#2A8C53" stroke-linecap="round"/>
<path d="M89.1594 31.2428C87.7691 31.0289 86.2891 31.0409 84.8901 30.9787C84.4075 30.9573 83.5714 30.7934 83.1882 30.4799C82.5439 29.9527 81.4118 29.574 80.5768 29.5263C77.3657 29.3428 74.0983 28.8661 70.8718 28.8661C68.5807 28.8661 66.2895 28.8661 63.9984 28.8661C63.4067 28.8661 62.8149 28.8661 62.2232 28.8661C61.5592 28.8661 60.9746 29.1302 60.3159 29.1302C59.6942 29.1302 59.4026 29.5296 58.8562 29.651C58.3135 29.7716 58.0721 29.6089 57.6018 29.9224" stroke="#2A8C53" stroke-linecap="round"/>
<path d="M39.5123 34.8079C40.396 34.7668 41.0392 34.2479 41.845 33.9423C42.644 33.6392 43.4339 33.2632 44.2364 32.9887C46.026 32.3765 47.8764 32.079 49.6647 31.5142C53.5087 30.3003 57.2717 29.5263 61.2989 29.5263" stroke="#2A8C53" stroke-linecap="round"/>
</svg>
