<svg width="137" height="124" viewBox="0 0 137 124" fill="none" xmlns="http://www.w3.org/2000/svg">
<rect y="1.52588e-05" width="137" height="124" rx="14" fill="#36AA66"/>
<path d="M59.6723 64.9592C59.6723 67.0528 59.6723 69.1464 59.6723 71.24C59.6723 72.446 59.6307 73.6055 59.8701 74.776C60.1689 76.2371 60.3399 77.7616 60.3399 79.2579C60.3399 82.9701 60.4512 86.6734 60.4512 90.3792C60.4512 92.1607 60.7364 93.9589 60.8901 95.7265C60.9747 96.6993 60.785 97.6562 60.785 98.564" stroke="#4CDC88" stroke-width="2" stroke-linecap="round"/>
<path d="M60.2286 98.2302C60.2286 100.359 60.0472 102.593 60.346 104.684C60.4303 105.274 60.4692 106.037 60.9209 106.489C61.505 107.073 62.0907 107.148 62.7879 107.441C63.2497 107.636 63.762 107.706 64.2406 107.855C64.9532 108.078 65.6109 107.818 66.2868 107.695C67.3963 107.493 67.8581 106.379 68.8461 106.019C69.2371 105.877 69.5368 105.182 69.6621 104.82C69.839 104.309 70.1695 103.845 70.3298 103.324C70.4246 103.016 70.6779 102.386 70.4411 102.15C70.1809 101.889 69.9163 101.355 69.6869 101.037C69.0587 100.164 67.9761 99.9467 67.789 98.7309C67.6211 97.6395 67.6839 96.5011 67.6839 95.3865C67.6839 93.8636 67.9378 92.0871 67.6592 90.5894C67.0888 87.5233 67.2388 84.3932 67.2388 81.2856C67.2388 77.9018 67.1276 74.5425 67.1276 71.1658C67.1276 70.6919 67.1276 70.2179 67.1276 69.744C67.1276 69.1734 67.3379 68.9931 67.7396 68.6807C68.3509 68.2052 68.8597 68.4045 69.5756 68.2418C70.3689 68.0615 71.2707 68.0749 72.0854 68.0749C73.5062 68.0749 74.7729 67.5185 76.1655 67.5185C77.3813 67.5185 78.597 67.5185 79.8128 67.5185" stroke="#4CDC88" stroke-width="2" stroke-linecap="round"/>
<path d="M79.9242 67.5185C79.9242 65.2786 79.9242 63.0387 79.9242 60.7988C79.9242 59.8211 80.2443 58.8845 80.258 57.8994C80.2758 56.6199 80.4805 55.3405 80.4805 54.0605C80.4805 51.3787 80.5918 48.7036 80.5918 46.0426C80.5918 45.4301 80.3693 44.8986 80.3693 44.2869C80.3693 43.7594 80.3693 43.2319 80.3693 42.7043C80.3693 41.3896 80.3693 40.075 80.3693 38.7603C80.3693 34.4378 80.1467 30.0575 80.1467 25.7906" stroke="#4CDC88" stroke-width="2" stroke-linecap="round"/>
<path d="M79.7016 26.2358C79.7016 24.7071 79.9241 23.2154 79.9241 21.6859C79.9241 20.8312 80.0886 19.7813 79.8994 18.9535C79.7897 18.4735 79.7698 17.9842 79.6954 17.5007C79.6211 17.0174 79.5274 17 79.0834 17C78.7262 17 78.4604 17.0889 78.1438 17.2473C77.7056 17.4664 77.3311 17.4758 76.8703 17.5811C75.3813 17.9214 73.7588 17.8983 72.2462 18.1684C71.4564 18.3094 70.6396 18.1342 69.86 18.3847C68.8931 18.6956 67.9382 19.0776 66.9916 19.448C65.757 19.9311 64.4551 20.2538 63.2206 20.7339C61.7389 21.3101 60.0603 21.3412 58.5224 21.6488C57.5482 21.8436 57.0894 21.5959 56.8842 22.7244C56.7236 23.6079 56.0002 24.3292 56.0002 25.259C56.0002 28.5319 55.9665 31.69 56.8038 34.8533C57.2236 36.4393 57.589 38.0843 57.7806 39.7123C58.1545 42.8904 58.5944 46.0475 58.5595 49.2572C58.5333 51.6683 58.4482 54.0849 58.4482 56.5023C58.4482 57.0772 58.5308 57.6647 58.6089 58.2333C58.8302 59.8438 59.0253 61.4308 59.1406 63.0552C59.2165 64.1253 59.4147 65.1533 59.6722 66.1832" stroke="#4CDC88" stroke-width="2" stroke-linecap="round"/>
<path d="M60.1174 71.9695C61.6869 71.9695 63.2347 71.7901 64.7909 71.7469C65.3567 71.7312 65.9266 71.8134 66.46 71.6356" stroke="#4CDC88" stroke-width="2" stroke-linecap="round"/>
<path d="M60.006 65.5155C61.5506 65.5155 63.1135 65.8423 64.4323 66.6901C64.9915 67.0496 65.8514 68.1402 66.5712 67.8523" stroke="#4CDC88" stroke-width="2" stroke-linecap="round"/>
<path d="M62.7879 100.233C62.5065 100.954 62.5369 101.714 62.5654 102.483C62.5964 103.321 63.8258 102.71 64.1788 102.514C64.6566 102.249 65.5161 101.502 64.9639 100.95C64.5607 100.547 64.2439 100.732 63.7894 100.505C63.5184 100.37 63.2617 100.247 63.0105 100.122" stroke="#4CDC88" stroke-width="2" stroke-linecap="round"/>
<path d="M63.4555 87.993C62.338 88.2383 62.1202 88.6273 62.1202 89.7115C62.1202 90.9362 62.3849 91.1086 63.5668 91.1086C64.5823 91.1086 65.5697 91.068 65.5697 89.8228C65.5697 89.2076 64.5915 87.5479 63.9006 87.5479" stroke="#4CDC88" stroke-width="2" stroke-linecap="round"/>
<path d="M63.1217 76.3092C62.6345 76.3092 62.1203 76.2316 62.1203 76.8655C62.1203 77.1976 62.1019 77.5355 62.1203 77.867C62.1464 78.3376 63.3295 78.8685 63.7338 78.8685C64.022 78.8685 64.4798 78.9547 64.7352 78.8128C65.0229 78.653 64.9021 78.1184 64.9021 77.8175C64.9021 76.7998 63.8835 76.4889 63.0105 76.1979" stroke="#4CDC88" stroke-width="2" stroke-linecap="round"/>
</svg>
