<svg width="89" height="62" viewBox="0 0 89 62" fill="none" xmlns="http://www.w3.org/2000/svg">
<path d="M1 28.3744C4.25764 28.3744 7.20095 27.8187 10.406 27.8187C12.5654 27.8187 14.6778 27.7146 16.6105 28.359C18.219 28.8953 19.6017 31.4751 20.0369 33.2526C20.596 35.536 20.5812 37.4929 18.7404 39.2114C18.3597 39.5668 17.3942 41.2682 16.7693 40.539C16.654 40.4044 16.4897 39.1615 16.4782 38.9335C16.4657 38.6843 15.9556 37.9403 15.8168 37.7603C15.1838 36.9396 14.7507 35.9339 13.8588 35.3829C13.197 34.9741 12.618 33.1438 11.9538 33.0982C9.96586 32.9618 8.15485 31.431 6.00066 31.431C4.77969 31.431 3.31531 31.814 2.37584 30.937C1.81467 30.4132 1.47625 31.2717 1.47625 30.0417C1.47625 29.5162 1.64615 28.6125 1.23813 28.3744" stroke="#35609E" stroke-width="2" stroke-linecap="round"/>
<path d="M16.6719 39.7969C16.6719 42.5749 16.9135 45.4773 16.9135 48.1062C16.9135 49.748 17.8446 52.7719 18.967 53.8368C20.1978 55.0046 20.9818 57.1988 22.3628 58.1347C24.1407 59.3396 25.6941 60.4269 27.7852 60.4269C29.6569 60.4269 31.3708 61 33.1003 61C35.1539 61 37.2074 61 39.261 61C43.4084 61 47.5557 61 51.7031 61" stroke="#35609E" stroke-width="2" stroke-linecap="round"/>
<path d="M51.6416 61C54.935 61 58.2285 61 61.5219 61C64.3559 61 65.8509 60.1385 67.9079 58.2835C69.7099 56.6585 70.678 52.9245 71.1478 50.5416C71.7129 47.6748 71.4022 44.4174 71.4022 41.4414C71.4022 40.0255 71.232 38.9011 72.0715 37.8496C72.8674 36.8527 73.8819 36.6886 74.7759 35.7368C75.2793 35.2009 75.5959 34.4324 76.2753 34.1673C76.9867 33.8897 77.7222 33.6083 78.3906 33.2316C79.7118 32.487 81.8557 32.2054 83.3308 32.2054C84.4883 32.2054 85.833 31.6621 86.9455 31.6621C88.4352 31.6621 87.1309 29.9168 87.066 28.674C87.0459 28.2896 79.0208 28.674 78.2434 28.674C76.6549 28.674 74.9645 28.9456 73.4505 28.9456C73.1689 28.9456 71.74 29.1241 71.6565 28.7947C71.4434 27.9539 72.1251 27.4094 72.1251 26.6366C72.1251 25.9212 71.7687 22.9516 71.0273 22.7128C70.6401 22.5881 69.6154 22.9694 69.1128 22.9694C68.3695 22.9694 67.6197 23.0016 66.877 22.9694C63.7496 22.8338 60.5901 21.9426 57.4252 22.7581C54.2667 23.5719 50.4512 22.9694 47.1834 22.9694C41.2604 22.9694 35.6132 22.4261 29.7122 22.4261C28.0878 22.4261 26.4634 22.4261 24.839 22.4261C23.4135 22.4261 21.5938 22.0904 20.1934 22.4412C19.0596 22.7252 18.0218 22.8849 17.0472 23.5127C16.1804 24.071 16.9974 27.4838 17.6631 27.859" stroke="#35609E" stroke-width="2" stroke-linecap="round"/>
<path d="M70.5074 28.7344C70.1689 30.1324 68.7189 34.0784 69.3972 35.4451C69.6578 35.9701 69.9413 36.5413 70.1785 37.0192C70.4811 37.629 70.6449 38.5385 71.0625 38.875" stroke="#35609E" stroke-width="2" stroke-linecap="round"/>
<path d="M36.5377 19.5156C35.4681 17.076 34.8969 16.4762 35.1825 14.2609C35.3764 12.7572 37.2084 12.5514 37.8928 11.3903C38.8537 9.76027 38.7962 8.43066 38.7962 6.59785C38.7962 4.90269 37.8928 3.65073 37.8928 2" stroke="#515151" stroke-width="3" stroke-linecap="round"/>
<path d="M43.4023 2C43.4023 2.88067 43.1251 5.01538 43.6193 5.73247C43.8476 6.06382 44.2207 6.8092 44.2391 7.26143C44.2848 8.38874 44.5419 10.8762 43.8982 11.6235C43.2767 12.3449 42.5656 13.152 42.5656 14.5465C42.5656 15.6547 42.1704 18.5938 43.1234 18.5938" stroke="#515151" stroke-width="3" stroke-linecap="round"/>
<path d="M50.9437 18.5938C50.14 17.9892 47.9274 14.9272 49.4725 13.737C50.3366 13.0714 51.6353 12.5288 51.7843 11.3087C51.9287 10.1274 52.625 8.77881 52.625 7.4638C52.625 5.5977 52.2047 3.83951 52.2047 2" stroke="#515151" stroke-width="3" stroke-linecap="round"/>
</svg>
