<svg width="210" height="62" viewBox="0 0 210 62" fill="none" xmlns="http://www.w3.org/2000/svg">
<path d="M92.504 41.978C92.504 40.934 92.714 40.022 93.134 39.242C93.566 38.462 94.16 37.862 94.916 37.442C95.684 37.022 96.56 36.812 97.544 36.812C98.804 36.812 99.854 37.142 100.694 37.802C101.546 38.462 102.104 39.392 102.368 40.592H99.092C98.816 39.824 98.282 39.44 97.49 39.44C96.926 39.44 96.476 39.662 96.14 40.106C95.804 40.538 95.636 41.162 95.636 41.978C95.636 42.794 95.804 43.424 96.14 43.868C96.476 44.3 96.926 44.516 97.49 44.516C98.282 44.516 98.816 44.132 99.092 43.364H102.368C102.104 44.54 101.546 45.464 100.694 46.136C99.842 46.808 98.792 47.144 97.544 47.144C96.56 47.144 95.684 46.934 94.916 46.514C94.16 46.094 93.566 45.494 93.134 44.714C92.714 43.934 92.504 43.022 92.504 41.978ZM103.402 41.96C103.402 40.928 103.594 40.022 103.978 39.242C104.374 38.462 104.908 37.862 105.58 37.442C106.252 37.022 107.002 36.812 107.83 36.812C108.538 36.812 109.156 36.956 109.684 37.244C110.224 37.532 110.638 37.91 110.926 38.378V36.956H114.004V47H110.926V45.578C110.626 46.046 110.206 46.424 109.666 46.712C109.138 47 108.52 47.144 107.812 47.144C106.996 47.144 106.252 46.934 105.58 46.514C104.908 46.082 104.374 45.476 103.978 44.696C103.594 43.904 103.402 42.992 103.402 41.96ZM110.926 41.978C110.926 41.21 110.71 40.604 110.278 40.16C109.858 39.716 109.342 39.494 108.73 39.494C108.118 39.494 107.596 39.716 107.164 40.16C106.744 40.592 106.534 41.192 106.534 41.96C106.534 42.728 106.744 43.34 107.164 43.796C107.596 44.24 108.118 44.462 108.73 44.462C109.342 44.462 109.858 44.24 110.278 43.796C110.71 43.352 110.926 42.746 110.926 41.978ZM119.309 38.378C119.609 37.91 120.023 37.532 120.551 37.244C121.079 36.956 121.697 36.812 122.405 36.812C123.233 36.812 123.983 37.022 124.655 37.442C125.327 37.862 125.855 38.462 126.239 39.242C126.635 40.022 126.833 40.928 126.833 41.96C126.833 42.992 126.635 43.904 126.239 44.696C125.855 45.476 125.327 46.082 124.655 46.514C123.983 46.934 123.233 47.144 122.405 47.144C121.709 47.144 121.091 47 120.551 46.712C120.023 46.424 119.609 46.052 119.309 45.596V51.788H116.231V36.956H119.309V38.378ZM123.701 41.96C123.701 41.192 123.485 40.592 123.053 40.16C122.633 39.716 122.111 39.494 121.487 39.494C120.875 39.494 120.353 39.716 119.921 40.16C119.501 40.604 119.291 41.21 119.291 41.978C119.291 42.746 119.501 43.352 119.921 43.796C120.353 44.24 120.875 44.462 121.487 44.462C122.099 44.462 122.621 44.24 123.053 43.796C123.485 43.34 123.701 42.728 123.701 41.96ZM134.046 44.39V47H132.48C131.364 47 130.494 46.73 129.87 46.19C129.246 45.638 128.934 44.744 128.934 43.508V39.512H127.71V36.956H128.934V34.508H132.012V36.956H134.028V39.512H132.012V43.544C132.012 43.844 132.084 44.06 132.228 44.192C132.372 44.324 132.612 44.39 132.948 44.39H134.046ZM135.149 41.96C135.149 40.928 135.341 40.022 135.725 39.242C136.121 38.462 136.655 37.862 137.327 37.442C137.999 37.022 138.749 36.812 139.577 36.812C140.285 36.812 140.903 36.956 141.431 37.244C141.971 37.532 142.385 37.91 142.673 38.378V36.956H145.751V47H142.673V45.578C142.373 46.046 141.953 46.424 141.413 46.712C140.885 47 140.267 47.144 139.559 47.144C138.743 47.144 137.999 46.934 137.327 46.514C136.655 46.082 136.121 45.476 135.725 44.696C135.341 43.904 135.149 42.992 135.149 41.96ZM142.673 41.978C142.673 41.21 142.457 40.604 142.025 40.16C141.605 39.716 141.089 39.494 140.477 39.494C139.865 39.494 139.343 39.716 138.911 40.16C138.491 40.592 138.281 41.192 138.281 41.96C138.281 42.728 138.491 43.34 138.911 43.796C139.343 44.24 139.865 44.462 140.477 44.462C141.089 44.462 141.605 44.24 142.025 43.796C142.457 43.352 142.673 42.746 142.673 41.978ZM149.525 35.912C148.985 35.912 148.541 35.756 148.193 35.444C147.857 35.12 147.689 34.724 147.689 34.256C147.689 33.776 147.857 33.38 148.193 33.068C148.541 32.744 148.985 32.582 149.525 32.582C150.053 32.582 150.485 32.744 150.821 33.068C151.169 33.38 151.343 33.776 151.343 34.256C151.343 34.724 151.169 35.12 150.821 35.444C150.485 35.756 150.053 35.912 149.525 35.912ZM151.055 36.956V47H147.977V36.956H151.055ZM159.406 36.848C160.582 36.848 161.518 37.232 162.214 38C162.922 38.756 163.276 39.8 163.276 41.132V47H160.216V41.546C160.216 40.874 160.042 40.352 159.694 39.98C159.346 39.608 158.878 39.422 158.29 39.422C157.702 39.422 157.234 39.608 156.886 39.98C156.538 40.352 156.364 40.874 156.364 41.546V47H153.286V36.956H156.364V38.288C156.676 37.844 157.096 37.496 157.624 37.244C158.152 36.98 158.746 36.848 159.406 36.848ZM164.803 41.978C164.803 40.934 165.013 40.022 165.433 39.242C165.865 38.462 166.459 37.862 167.215 37.442C167.983 37.022 168.859 36.812 169.843 36.812C171.103 36.812 172.153 37.142 172.993 37.802C173.845 38.462 174.403 39.392 174.667 40.592H171.391C171.115 39.824 170.581 39.44 169.789 39.44C169.225 39.44 168.775 39.662 168.439 40.106C168.103 40.538 167.935 41.162 167.935 41.978C167.935 42.794 168.103 43.424 168.439 43.868C168.775 44.3 169.225 44.516 169.789 44.516C170.581 44.516 171.115 44.132 171.391 43.364H174.667C174.403 44.54 173.845 45.464 172.993 46.136C172.141 46.808 171.091 47.144 169.843 47.144C168.859 47.144 167.983 46.934 167.215 46.514C166.459 46.094 165.865 45.494 165.433 44.714C165.013 43.934 164.803 43.022 164.803 41.978ZM180.885 47.144C179.901 47.144 179.013 46.934 178.221 46.514C177.441 46.094 176.823 45.494 176.367 44.714C175.923 43.934 175.701 43.022 175.701 41.978C175.701 40.946 175.929 40.04 176.385 39.26C176.841 38.468 177.465 37.862 178.257 37.442C179.049 37.022 179.937 36.812 180.921 36.812C181.905 36.812 182.793 37.022 183.585 37.442C184.377 37.862 185.001 38.468 185.457 39.26C185.913 40.04 186.141 40.946 186.141 41.978C186.141 43.01 185.907 43.922 185.439 44.714C184.983 45.494 184.353 46.094 183.549 46.514C182.757 46.934 181.869 47.144 180.885 47.144ZM180.885 44.48C181.473 44.48 181.971 44.264 182.379 43.832C182.799 43.4 183.009 42.782 183.009 41.978C183.009 41.174 182.805 40.556 182.397 40.124C182.001 39.692 181.509 39.476 180.921 39.476C180.321 39.476 179.823 39.692 179.427 40.124C179.031 40.544 178.833 41.162 178.833 41.978C178.833 42.782 179.025 43.4 179.409 43.832C179.805 44.264 180.297 44.48 180.885 44.48ZM192.346 47.144C191.362 47.144 190.474 46.934 189.682 46.514C188.902 46.094 188.284 45.494 187.828 44.714C187.384 43.934 187.162 43.022 187.162 41.978C187.162 40.946 187.39 40.04 187.846 39.26C188.302 38.468 188.926 37.862 189.718 37.442C190.51 37.022 191.398 36.812 192.382 36.812C193.366 36.812 194.254 37.022 195.046 37.442C195.838 37.862 196.462 38.468 196.918 39.26C197.374 40.04 197.602 40.946 197.602 41.978C197.602 43.01 197.368 43.922 196.9 44.714C196.444 45.494 195.814 46.094 195.01 46.514C194.218 46.934 193.33 47.144 192.346 47.144ZM192.346 44.48C192.934 44.48 193.432 44.264 193.84 43.832C194.26 43.4 194.47 42.782 194.47 41.978C194.47 41.174 194.266 40.556 193.858 40.124C193.462 39.692 192.97 39.476 192.382 39.476C191.782 39.476 191.284 39.692 190.888 40.124C190.492 40.544 190.294 41.162 190.294 41.978C190.294 42.782 190.486 43.4 190.87 43.832C191.266 44.264 191.758 44.48 192.346 44.48ZM205.373 47L202.313 42.788V47H199.235V33.68H202.313V41.042L205.355 36.956H209.153L204.977 41.996L209.189 47H205.373Z" fill="black"/>
<path d="M1 28.3744C4.25764 28.3744 7.20095 27.8187 10.406 27.8187C12.5654 27.8187 14.6778 27.7146 16.6105 28.359C18.219 28.8953 19.6017 31.4751 20.0369 33.2526C20.596 35.536 20.5812 37.4929 18.7404 39.2114C18.3597 39.5668 17.3942 41.2682 16.7693 40.539C16.654 40.4044 16.4897 39.1615 16.4782 38.9335C16.4657 38.6843 15.9556 37.9403 15.8168 37.7603C15.1838 36.9396 14.7507 35.9339 13.8588 35.3829C13.197 34.9741 12.618 33.1438 11.9538 33.0982C9.96586 32.9618 8.15485 31.431 6.00066 31.431C4.77969 31.431 3.31531 31.814 2.37584 30.937C1.81467 30.4132 1.47625 31.2717 1.47625 30.0417C1.47625 29.5162 1.64615 28.6125 1.23813 28.3744" stroke="#35609E" stroke-width="2" stroke-linecap="round"/>
<path d="M16.6719 39.7969C16.6719 42.5749 16.9135 45.4773 16.9135 48.1062C16.9135 49.748 17.8446 52.7719 18.967 53.8368C20.1978 55.0046 20.9818 57.1988 22.3628 58.1347C24.1407 59.3396 25.6941 60.4269 27.7852 60.4269C29.6569 60.4269 31.3708 61 33.1003 61C35.1539 61 37.2074 61 39.261 61C43.4084 61 47.5557 61 51.7031 61" stroke="#35609E" stroke-width="2" stroke-linecap="round"/>
<path d="M51.6416 61C54.935 61 58.2285 61 61.5219 61C64.3559 61 65.8509 60.1385 67.9079 58.2835C69.7099 56.6585 70.678 52.9245 71.1478 50.5416C71.7129 47.6748 71.4022 44.4174 71.4022 41.4414C71.4022 40.0255 71.232 38.9011 72.0715 37.8496C72.8674 36.8527 73.8819 36.6886 74.7759 35.7368C75.2793 35.2009 75.5959 34.4324 76.2753 34.1673C76.9867 33.8897 77.7222 33.6083 78.3906 33.2316C79.7118 32.487 81.8557 32.2054 83.3308 32.2054C84.4883 32.2054 85.833 31.6621 86.9455 31.6621C88.4352 31.6621 87.1309 29.9168 87.066 28.674C87.0459 28.2896 79.0208 28.674 78.2434 28.674C76.6549 28.674 74.9645 28.9456 73.4505 28.9456C73.1689 28.9456 71.74 29.1241 71.6565 28.7947C71.4434 27.9539 72.1251 27.4094 72.1251 26.6366C72.1251 25.9212 71.7687 22.9516 71.0273 22.7128C70.6401 22.5881 69.6154 22.9694 69.1128 22.9694C68.3695 22.9694 67.6197 23.0016 66.877 22.9694C63.7496 22.8338 60.5901 21.9426 57.4252 22.7581C54.2667 23.5719 50.4512 22.9694 47.1834 22.9694C41.2604 22.9694 35.6132 22.4261 29.7122 22.4261C28.0878 22.4261 26.4634 22.4261 24.839 22.4261C23.4135 22.4261 21.5938 22.0904 20.1934 22.4412C19.0596 22.7252 18.0218 22.8849 17.0472 23.5127C16.1804 24.071 16.9974 27.4838 17.6631 27.859" stroke="#35609E" stroke-width="2" stroke-linecap="round"/>
<path d="M70.5074 28.7344C70.1689 30.1324 68.7189 34.0784 69.3972 35.4451C69.6578 35.9701 69.9413 36.5413 70.1785 37.0192C70.4811 37.629 70.6449 38.5385 71.0625 38.875" stroke="#35609E" stroke-width="2" stroke-linecap="round"/>
<path d="M36.5377 19.5156C35.4681 17.076 34.8969 16.4762 35.1825 14.2609C35.3764 12.7572 37.2084 12.5514 37.8928 11.3903C38.8537 9.76027 38.7962 8.43066 38.7962 6.59785C38.7962 4.90269 37.8928 3.65073 37.8928 2" stroke="#515151" stroke-width="3" stroke-linecap="round"/>
<path d="M43.4023 2C43.4023 2.88067 43.1251 5.01538 43.6193 5.73247C43.8476 6.06382 44.2207 6.8092 44.2391 7.26143C44.2848 8.38874 44.5419 10.8762 43.8982 11.6235C43.2767 12.3449 42.5656 13.152 42.5656 14.5465C42.5656 15.6547 42.1704 18.5938 43.1234 18.5938" stroke="#515151" stroke-width="3" stroke-linecap="round"/>
<path d="M50.9437 18.5938C50.14 17.9892 47.9274 14.9272 49.4725 13.737C50.3366 13.0714 51.6353 12.5288 51.7843 11.3087C51.9287 10.1274 52.625 8.77881 52.625 7.4638C52.625 5.5977 52.2047 3.83951 52.2047 2" stroke="#515151" stroke-width="3" stroke-linecap="round"/>
</svg>
